<svg width="73" height="21" viewBox="0 0 73 21" fill="none" xmlns="http://www.w3.org/2000/svg">
<path d="M5.10791 15.9514C3.93242 15.9514 2.94226 15.4589 2.13742 14.4741C1.33258 13.4892 0.930162 12.2819 0.930162 10.8523C0.930162 9.10494 1.41201 7.63293 2.37569 6.43626C3.34997 5.2396 4.54134 4.64126 5.94981 4.64126C6.50049 4.64126 7.00881 4.69951 7.47477 4.816C7.95131 4.9219 8.29019 5.03309 8.4914 5.14958L8.77733 5.32431L7.69716 7.53232C7.45359 7.32052 7.10941 7.12461 6.66463 6.94458C6.21985 6.75396 5.81744 6.65865 5.45738 6.65865C4.72667 6.65865 4.13892 6.96047 3.69415 7.56409C3.25996 8.16772 3.04286 9.03081 3.04286 10.1533C3.04286 11.2653 3.27055 12.1813 3.72592 12.9014C4.18128 13.611 4.8008 13.9657 5.58446 13.9657C6.09277 13.9657 6.55344 13.8069 6.96645 13.4892C7.37946 13.1715 7.67068 12.7479 7.84012 12.2184L9.15857 12.9809C8.8091 13.9128 8.27431 14.6435 7.55419 15.173C6.83407 15.6919 6.01864 15.9514 5.10791 15.9514ZM27.3352 10.8205H27.494L29.8132 4.78423L32.0054 4.84777L32.0689 11.6783L32.3707 15.7766H30.2262L30.3057 11.6465L30.1309 7.46878L28.2247 12.7267L26.2709 12.822L24.4918 7.46878L24.3488 11.6465L24.46 15.7766H22.4903L22.7127 11.9166L22.808 5.10192L25.3337 4.7048L27.3352 10.8205Z" fill="url(#paint0_linear)"/>
<path d="M68.705 14.7123C68.705 14.3734 68.8267 14.0769 69.0703 13.8228C69.3245 13.558 69.6263 13.4256 69.9758 13.4256C70.6641 13.4256 71.0083 13.7751 71.0083 14.4741C71.0083 14.8765 70.8812 15.2101 70.627 15.4748C70.3835 15.7396 70.0922 15.8719 69.7534 15.8719C69.4251 15.8719 69.1656 15.766 68.975 15.5542C68.795 15.3318 68.705 15.0512 68.705 14.7123Z" fill="#424242"/>
<path d="M34.7705 12.6155C35.6706 13.5157 36.5708 13.9657 37.4709 13.9657C37.9369 13.9657 38.3075 13.8598 38.5829 13.648C38.8688 13.4256 39.0117 13.145 39.0117 12.8061C39.0117 12.4567 38.8423 12.1654 38.5034 11.9325C38.1645 11.6889 37.7515 11.4771 37.2644 11.2971C36.7879 11.117 36.3113 10.9158 35.8348 10.6934C35.3582 10.4605 34.9505 10.1322 34.6116 9.70856C34.2727 9.28496 34.1033 8.77135 34.1033 8.16772C34.1033 7.21463 34.5004 6.3939 35.2947 5.70555C36.0889 5.00662 37.0314 4.65715 38.1222 4.65715C38.6199 4.65715 39.1018 4.7101 39.5677 4.816C40.0337 4.9219 40.4838 5.07545 40.9179 5.27666L39.8378 7.59586C39.5412 7.36288 39.1335 7.15109 38.6146 6.96047C38.1063 6.75926 37.6562 6.65865 37.2644 6.65865C36.8832 6.65865 36.5708 6.75396 36.3272 6.94458C36.0942 7.12461 35.9777 7.36818 35.9777 7.67529C35.9777 7.9824 36.1472 8.25774 36.486 8.50131C36.8249 8.73429 37.2326 8.94079 37.7092 9.12082C38.1963 9.30085 38.6782 9.50206 39.1547 9.72445C39.6419 9.93625 40.0549 10.2539 40.3937 10.6775C40.7326 11.1011 40.9021 11.6148 40.9021 12.2184C40.9021 13.2138 40.5049 14.0875 39.7107 14.8394C38.9164 15.5807 37.9898 15.9514 36.9308 15.9514C36.1366 15.9514 35.4323 15.7607 34.8181 15.3795C34.278 15.0512 33.8968 14.76 33.6744 14.5058L33.5314 14.3311L34.7705 12.6155ZM45.9365 15.9514C44.9834 15.9514 44.1785 15.6601 43.522 15.0777C42.876 14.4952 42.553 13.7751 42.553 12.9173L42.3941 5.1337L44.6816 4.73657L44.4274 11.6942C44.4274 12.4355 44.5968 13.0126 44.9357 13.4256C45.2852 13.8387 45.82 14.0452 46.5401 14.0452C47.2602 14.0452 47.7791 13.8439 48.0968 13.4415C48.4145 13.0391 48.5734 12.3455 48.5734 11.3606L48.3828 5.1337L50.6067 4.73657L50.4319 11.726C50.4319 12.9756 50.0136 13.9922 49.177 14.7759C48.3404 15.5595 47.2602 15.9514 45.9365 15.9514ZM56.3152 15.9514C55.1397 15.9514 54.1495 15.4589 53.3447 14.4741C52.5399 13.4892 52.1374 12.2819 52.1374 10.8523C52.1374 9.10494 52.6193 7.63293 53.583 6.43626C54.5573 5.2396 55.7486 4.64126 57.1571 4.64126C57.7078 4.64126 58.2161 4.69951 58.682 4.816C59.1586 4.9219 59.4975 5.03309 59.6987 5.14958L59.9846 5.32431L58.9044 7.53232C58.6609 7.32052 58.3167 7.12461 57.8719 6.94458C57.4271 6.75396 57.0247 6.65865 56.6647 6.65865C55.9339 6.65865 55.3462 6.96047 54.9014 7.56409C54.4672 8.16772 54.2501 9.03081 54.2501 10.1533C54.2501 11.2653 54.4778 12.1813 54.9332 12.9014C55.3886 13.611 56.0081 13.9657 56.7917 13.9657C57.3001 13.9657 57.7607 13.8069 58.1737 13.4892C58.5867 13.1715 58.878 12.7479 59.0474 12.2184L60.3659 12.9809C60.0164 13.9128 59.4816 14.6435 58.7615 15.173C58.0414 15.6919 57.2259 15.9514 56.3152 15.9514ZM61.6808 15.7766L61.8714 11.9166L61.6808 4.816H67.6377L67.463 6.51569H63.8888L63.7935 9.32732H66.9705L66.7958 11.0111H63.73L63.7141 11.6465L63.8253 14.0928H67.6695L67.4947 15.7766H61.6808Z" fill="url(#paint1_linear)"/>
<g filter="url(#filter0_i)">
<path fill-rule="evenodd" clip-rule="evenodd" d="M10.293 6.08842C9.11124 7.27022 9.11124 9.18629 10.293 10.3681L15.4751 15.5502L19.7548 11.2705L19.7458 11.2615L20.8664 10.1408C21.9343 9.07292 21.9343 7.3415 20.8664 6.27359C19.5114 4.91859 17.2536 5.36623 16.2726 7.01235C16.1734 7.17876 16.0747 7.3385 15.9761 7.49179L14.5727 6.08842C13.3909 4.90662 11.4748 4.90661 10.293 6.08842Z" fill="url(#paint2_linear)"/>
</g>
<path d="M10.4372 10.5123C9.16223 9.23732 9.12388 7.18228 10.3504 5.8606L10.5637 5.63074L11.2495 5.1667C12.8774 4.06509 15.0495 4.62569 15.6983 6.48119C16.5776 8.99607 17.2257 10.9733 20.1041 10.9733L15.4751 15.5502L10.4372 10.5123Z" fill="url(#paint3_linear)"/>
<defs>
<filter id="filter0_i" x="8.1532" y="0.894318" width="16.6559" height="15.6559" filterUnits="userSpaceOnUse" color-interpolation-filters="sRGB">
<feFlood flood-opacity="0" result="BackgroundImageFix"/>
<feBlend mode="normal" in="SourceGraphic" in2="BackgroundImageFix" result="shape"/>
<feColorMatrix in="SourceAlpha" type="matrix" values="0 0 0 0 0 0 0 0 0 0 0 0 0 0 0 0 0 0 127 0" result="hardAlpha"/>
<feOffset dx="2" dy="1"/>
<feGaussianBlur stdDeviation="4"/>
<feComposite in2="hardAlpha" operator="arithmetic" k2="-1" k3="1"/>
<feColorMatrix type="matrix" values="0 0 0 0 0 0 0 0 0 0 0 0 0 0 0 0 0 0 0.25 0"/>
<feBlend mode="normal" in2="shape" result="effect1_innerShadow"/>
</filter>
<linearGradient id="paint0_linear" x1="36.4536" y1="0.776619" x2="36.4536" y2="20.7766" gradientUnits="userSpaceOnUse">
<stop stop-color="#C53523"/>
<stop offset="1" stop-color="#D64923"/>
</linearGradient>
<linearGradient id="paint1_linear" x1="36.4536" y1="0.776619" x2="36.4536" y2="20.7766" gradientUnits="userSpaceOnUse">
<stop stop-color="#C33423"/>
<stop offset="1" stop-color="#F45427"/>
</linearGradient>
<linearGradient id="paint2_linear" x1="12.0627" y1="7.64807" x2="19.1421" y2="11.8833" gradientUnits="userSpaceOnUse">
<stop offset="0.00482858" stop-color="#FF9A44"/>
<stop offset="1" stop-color="#C93A23"/>
</linearGradient>
<linearGradient id="paint3_linear" x1="9.89331" y1="6.44481" x2="23.638" y2="0.423506" gradientUnits="userSpaceOnUse">
<stop offset="0.0271738" stop-color="#C43423"/>
<stop offset="0.578125" stop-color="#FF9A44"/>
<stop offset="1" stop-color="#DC4F23"/>
</linearGradient>
</defs>
</svg>
